<?xml version="1.0" standalone="no"?>
<!DOCTYPE svg PUBLIC "-//W3C//DTD SVG 20010904//EN"
 "http://www.w3.org/TR/2001/REC-SVG-20010904/DTD/svg10.dtd">
<svg version="1.0" xmlns="http://www.w3.org/2000/svg"
 width="1000.000000pt" height="1000.000000pt" viewBox="0 0 1000.000000 1000.000000"
 preserveAspectRatio="xMidYMid meet">
<metadata>
Created by potrace 1.14, written by Peter Selinger 2001-2017
</metadata>
<g transform="translate(0.000000,1000.000000) scale(0.100000,-0.100000)"
fill="#000000" stroke="none">
<path d="M5036 9242 c-3 -5 1 -9 9 -9 8 0 12 4 9 9 -3 4 -7 8 -9 8 -2 0 -6 -4
-9 -8z"/>
<path d="M4815 9181 c-3 -5 -2 -12 3 -15 5 -3 9 1 9 9 0 17 -3 19 -12 6z"/>
<path d="M5175 9180 c3 -5 8 -10 11 -10 2 0 4 5 4 10 0 6 -5 10 -11 10 -5 0
-7 -4 -4 -10z"/>
<path d="M4994 9165 c1 -8 8 -21 16 -28 12 -10 12 -9 2 4 -6 9 -9 18 -6 21 3
3 1 9 -4 12 -6 3 -9 -1 -8 -9z"/>
<path d="M4556 9153 c-6 -14 -5 -15 5 -6 7 7 10 15 7 18 -3 3 -9 -2 -12 -12z"/>
<path d="M4890 9161 c0 -6 4 -13 10 -16 6 -3 7 1 4 9 -7 18 -14 21 -14 7z"/>
<path d="M5415 9160 c3 -5 8 -10 11 -10 2 0 4 5 4 10 0 6 -5 10 -11 10 -5 0
-7 -4 -4 -10z"/>
<path d="M5473 9155 c0 -8 4 -12 9 -9 5 3 6 10 3 15 -9 13 -12 11 -12 -6z"/>
<path d="M4336 9142 c-3 -4 4 -9 15 -9 23 -2 25 3 4 10 -8 4 -16 3 -19 -1z"/>
<path d="M5636 9138 c3 -5 10 -6 15 -3 13 9 11 12 -6 12 -8 0 -12 -4 -9 -9z"/>
<path d="M4200 9120 c-9 -6 -10 -10 -3 -10 6 0 15 5 18 10 8 12 4 12 -15 0z"/>
<path d="M4480 9126 c0 -2 8 -10 18 -17 15 -13 16 -12 3 4 -13 16 -21 21 -21
13z"/>
<path d="M4764 9119 c-2 -4 -35 -7 -73 -6 -38 1 -67 -1 -64 -5 4 -7 -18 -10
-120 -12 -20 -1 -37 -5 -37 -9 0 -5 -5 -5 -10 -2 -6 4 -8 11 -5 16 3 5 -1 6
-10 2 -12 -4 -13 -8 -5 -13 7 -4 -9 -10 -36 -14 -27 -4 -58 -10 -69 -13 -18
-5 -19 -4 -5 12 11 14 6 12 -17 -4 -18 -13 -38 -21 -47 -18 -9 4 -16 3 -16 -1
0 -10 -110 -33 -121 -26 -5 3 -9 1 -9 -4 0 -15 -43 -22 -58 -10 -10 9 -12 8
-10 -3 2 -9 -5 -14 -19 -13 -13 0 -23 -3 -23 -7 0 -3 -9 -9 -20 -12 -13 -3
-18 -1 -13 6 4 7 0 6 -10 -1 -9 -8 -22 -10 -28 -6 -7 4 -9 3 -6 -3 4 -6 0 -13
-8 -17 -8 -3 -15 0 -15 7 0 7 -4 6 -10 -3 -5 -8 -13 -15 -17 -16 -4 0 -26 -8
-48 -18 -22 -9 -52 -18 -67 -19 -14 -1 -24 -5 -22 -9 2 -3 -9 -11 -25 -16 -22
-8 -31 -7 -35 1 -3 7 -5 6 -5 -3 -1 -8 -29 -27 -64 -42 -75 -33 -93 -37 -89
-20 1 8 -2 11 -7 7 -6 -3 -7 -13 -4 -22 4 -11 3 -14 -5 -9 -7 4 -12 3 -12 -2
0 -5 -8 -12 -17 -15 -10 -4 -55 -26 -101 -51 -47 -25 -93 -43 -107 -41 -13 1
-22 -2 -19 -7 3 -5 13 -7 21 -4 8 3 11 1 8 -4 -3 -6 -13 -10 -21 -10 -8 0 -14
-4 -14 -10 0 -5 -7 -10 -16 -10 -9 0 -12 5 -8 13 6 9 5 9 -8 0 -8 -7 -19 -9
-23 -5 -5 4 -5 1 -1 -6 4 -7 13 -9 19 -6 32 19 -8 -12 -55 -41 -29 -19 -59
-39 -65 -45 -7 -6 -13 -8 -13 -5 0 3 -10 -3 -22 -15 -12 -11 -28 -20 -35 -20
-8 0 -11 -4 -8 -10 6 -10 -7 -14 -33 -11 -7 1 -11 -4 -10 -11 2 -7 -5 -12 -14
-12 -10 1 -14 -4 -11 -12 3 -8 1 -14 -4 -14 -9 0 -24 -11 -70 -50 -7 -6 -13
-7 -13 -3 0 4 -5 0 -11 -10 -6 -9 -15 -14 -21 -11 -7 4 -8 2 -4 -4 4 -6 -4
-16 -16 -23 -13 -7 -28 -19 -34 -27 -6 -8 -16 -12 -21 -9 -6 4 -10 -1 -9 -11
0 -9 -5 -16 -11 -14 -7 1 -13 -6 -13 -15 0 -15 -2 -16 -10 -3 -9 13 -10 13
-10 0 0 -19 -210 -226 -224 -222 -6 2 -8 0 -4 -4 11 -10 -12 -35 -25 -27 -5 3
-7 1 -3 -5 7 -11 -80 -118 -94 -115 -5 2 -7 -4 -4 -12 4 -9 0 -15 -9 -15 -9 0
-19 -5 -23 -12 -5 -7 -3 -8 6 -3 7 4 2 -6 -11 -24 -12 -17 -26 -31 -31 -31 -4
0 -8 -5 -8 -11 0 -6 -12 -26 -26 -45 -23 -29 -29 -32 -43 -22 -14 12 -14 11
-2 -4 14 -19 15 -17 -28 -70 -8 -9 -19 -14 -25 -11 -6 4 -5 -1 3 -10 8 -10 9
-17 3 -17 -6 0 -13 -8 -16 -18 -4 -10 -14 -27 -24 -38 -9 -11 -28 -41 -42 -67
-13 -26 -28 -47 -32 -47 -5 0 -8 -3 -7 -7 1 -5 -2 -18 -6 -30 -7 -22 -17 -28
-40 -23 -5 1 -5 -4 2 -11 10 -10 7 -23 -15 -63 -15 -28 -30 -53 -35 -54 -4 -2
-4 -9 0 -15 4 -6 0 -8 -10 -4 -9 3 -19 1 -23 -5 -4 -6 -3 -8 4 -4 6 3 13 2 17
-4 3 -5 1 -10 -4 -10 -6 0 -10 -3 -8 -8 3 -11 -35 -95 -48 -104 -5 -4 -6 -8
-2 -8 4 0 2 -10 -5 -22 -7 -13 -13 -25 -13 -28 -14 -57 -33 -79 -57 -63 -7 4
-8 1 -4 -6 5 -7 15 -10 23 -7 11 5 13 2 8 -11 -4 -10 -12 -30 -17 -45 -5 -16
-13 -26 -18 -23 -4 2 -5 -7 -2 -20 3 -17 -1 -27 -13 -31 -9 -4 -12 -9 -7 -13
7 -4 5 -19 -5 -41 -9 -19 -17 -42 -18 -50 -2 -16 -24 -96 -33 -120 -3 -8 -4
-21 -3 -29 1 -7 -2 -10 -7 -7 -5 3 -7 -6 -4 -19 2 -14 0 -31 -6 -38 -5 -6 -8
-20 -7 -29 2 -10 -1 -18 -6 -18 -6 0 -8 -3 -5 -8 2 -4 0 -30 -5 -57 -6 -28
-11 -58 -12 -67 -1 -10 -4 -18 -7 -18 -5 0 -9 -42 -10 -114 -1 -17 -4 -35 -8
-40 -3 -6 -7 -27 -7 -46 -4 -146 -4 -143 -22 -129 -17 13 -17 12 -1 -6 13 -16
16 -38 13 -111 -1 -51 -6 -97 -9 -103 -4 -6 -3 -11 1 -11 11 0 10 -41 -1 -59
-7 -10 -6 -12 4 -6 8 5 11 3 8 -6 -3 -8 -11 -13 -17 -11 -7 1 -10 -2 -6 -8 3
-6 11 -8 16 -5 5 4 9 2 9 -4 0 -5 -5 -13 -10 -16 -6 -3 -10 -12 -10 -18 0 -7
4 -6 11 3 7 11 9 3 7 -30 -1 -25 1 -51 5 -57 4 -6 3 -15 -3 -18 -8 -5 -7 -11
1 -21 6 -8 9 -14 6 -14 -3 0 -2 -13 3 -29 5 -19 4 -33 -3 -40 -9 -9 -9 -14 0
-19 15 -10 21 -87 6 -87 -6 0 -15 -3 -19 -7 -3 -4 3 -5 16 -3 15 3 20 0 17 -9
-3 -8 -3 -17 0 -20 12 -12 12 -57 0 -50 -7 3 -5 0 3 -8 8 -7 16 -22 16 -33 2
-23 13 -83 19 -105 2 -8 7 -26 9 -40 3 -14 11 -47 17 -75 7 -27 12 -60 13 -72
0 -11 4 -19 7 -17 6 3 36 -108 30 -115 -1 -2 3 -7 10 -12 7 -4 12 -21 12 -38
0 -17 3 -29 5 -26 6 5 43 -91 45 -112 0 -7 4 -13 9 -13 5 0 6 -4 3 -10 -3 -5
-1 -10 4 -10 6 0 11 -6 11 -14 0 -7 9 -34 20 -60 12 -25 21 -48 21 -51 -1 -3
7 -20 17 -37 10 -18 43 -80 73 -138 29 -58 59 -111 66 -118 6 -6 15 -22 18
-35 4 -12 16 -32 27 -44 12 -12 17 -27 13 -34 -5 -8 -4 -10 3 -5 7 4 12 2 12
-4 0 -6 7 -18 15 -27 8 -8 13 -19 10 -24 -4 -5 1 -9 9 -9 9 0 16 -6 16 -12 0
-7 14 -31 30 -52 16 -21 27 -43 24 -47 -3 -5 1 -9 8 -9 15 -1 73 -78 73 -100
1 -8 6 -14 12 -13 7 2 22 -12 35 -30 12 -17 37 -48 56 -67 18 -19 40 -47 50
-62 9 -16 23 -28 32 -28 13 0 13 -1 0 -10 -13 -9 -13 -10 1 -10 18 0 65 -47
56 -56 -9 -9 -28 6 -22 17 4 5 1 9 -4 9 -14 0 -14 -17 -1 -25 12 -8 4 -25 -12
-25 -6 0 -8 3 -5 6 8 9 -11 44 -24 44 -6 0 -3 -7 5 -16 20 -20 20 -28 1 -20
-8 3 -15 1 -15 -4 0 -6 7 -10 15 -10 27 0 16 -18 -19 -31 -19 -7 -34 -15 -32
-18 1 -3 -20 -28 -46 -56 -27 -27 -46 -42 -43 -33 4 9 2 19 -3 22 -5 3 -8 -7
-6 -24 3 -21 -3 -36 -19 -52 -13 -13 -23 -27 -24 -31 -1 -4 -9 -27 -19 -50
-21 -51 -21 -51 -23 -83 -1 -17 -5 -23 -13 -18 -9 5 -9 2 1 -9 7 -9 10 -17 5
-17 -10 0 -9 -98 0 -108 3 -3 0 -12 -7 -20 -9 -13 -9 -14 1 -8 8 5 12 -1 12
-19 0 -14 7 -41 14 -60 8 -19 12 -35 9 -35 -3 0 2 -9 11 -19 10 -11 15 -25 11
-30 -3 -6 -2 -11 4 -11 6 0 13 -11 17 -25 3 -14 11 -25 17 -25 6 0 8 -3 5 -6
-3 -3 4 -15 16 -28 86 -90 93 -117 38 -145 -20 -10 -41 -20 -47 -22 -5 -2 -18
-12 -28 -23 -10 -12 -16 -14 -12 -6 5 12 4 12 -7 -1 -19 -23 -57 -41 -70 -33
-7 4 -8 3 -4 -5 11 -18 -16 -37 -51 -36 -17 0 -29 -3 -26 -8 3 -5 11 -6 19 -3
25 10 15 -9 -15 -27 -15 -9 -32 -13 -36 -9 -5 4 -5 2 -1 -5 8 -14 -49 -57 -64
-48 -6 4 -7 -1 -3 -11 5 -13 2 -15 -15 -9 -14 4 -22 2 -22 -5 0 -6 5 -8 10 -5
6 3 10 1 10 -4 0 -6 -4 -11 -9 -11 -6 0 -52 -43 -104 -96 -62 -62 -97 -91
-101 -82 -4 9 -5 9 -5 -2 2 -32 -2 -42 -15 -37 -8 3 -13 -1 -12 -11 1 -12 -5
-16 -19 -14 -17 2 -17 1 -5 -8 13 -9 11 -14 -12 -34 -15 -13 -25 -26 -22 -29
2 -2 -3 -10 -13 -18 -14 -12 -16 -12 -8 0 5 10 4 12 -4 7 -6 -4 -8 -12 -5 -18
4 -6 -1 -17 -10 -24 -10 -7 -18 -16 -19 -21 -1 -4 -11 -7 -22 -6 -18 2 -18 2
-3 -7 16 -10 16 -12 0 -39 -9 -16 -20 -27 -24 -25 -4 3 -5 -3 -1 -12 5 -14 3
-16 -11 -11 -10 4 -15 3 -11 -3 7 -12 -16 -80 -27 -80 -4 0 -7 -3 -6 -8 3 -8
-32 -93 -42 -102 -3 -3 -5 -12 -5 -20 0 -8 -5 -14 -12 -13 -7 2 -10 -6 -8 -18
3 -12 -4 -29 -13 -38 -10 -9 -12 -12 -5 -7 14 9 18 -5 6 -18 -4 -4 -8 -17 -10
-29 -5 -41 -38 -172 -47 -186 -6 -10 -6 -12 3 -7 9 6 10 0 5 -21 -4 -15 -11
-29 -16 -31 -4 -2 -8 -8 -8 -13 0 -6 5 -7 10 -4 5 3 10 2 10 -4 0 -5 -4 -13
-10 -16 -5 -3 -10 -12 -10 -18 0 -7 4 -6 10 3 7 11 8 9 6 -11 -1 -13 -5 -30
-9 -36 -3 -5 -4 -13 0 -17 3 -3 5 -36 4 -72 -2 -42 1 -64 8 -60 5 4 13 2 16
-4 5 -8 11 -7 21 1 11 9 14 8 14 -2 0 -12 2 -12 9 -1 11 19 15 19 34 4 11 -9
17 -10 22 -2 5 8 11 7 23 -2 9 -7 13 -8 9 -2 -7 12 21 12 41 0 6 -4 12 -3 12
2 0 12 63 9 72 -3 5 -6 8 -5 8 4 0 10 3 11 13 2 8 -6 17 -7 21 -3 10 9 116 10
110 0 -3 -5 -1 -8 5 -8 5 0 13 5 16 11 5 6 12 4 21 -8 13 -17 14 -17 8 0 -7
19 15 21 28 2 5 -6 8 -4 8 4 0 11 4 9 15 -5 9 -10 14 -13 13 -5 -2 7 5 15 15
16 18 3 22 -5 9 -21 -4 -5 1 -1 11 9 12 14 17 15 17 6 0 -11 3 -11 10 1 9 13
11 13 20 0 5 -8 10 -10 10 -3 0 7 17 10 44 10 26 -1 42 -6 39 -12 -3 -5 0 -4
8 3 17 16 32 16 23 0 -6 -10 -5 -10 7 -1 16 13 36 12 58 -1 10 -6 12 -5 7 2
-4 7 -2 12 3 12 6 0 11 -6 11 -12 0 -9 3 -10 8 -2 9 14 43 14 61 0 11 -8 13
-8 7 2 -11 18 5 14 20 -5 12 -15 13 -15 8 -2 -4 14 3 16 48 16 29 -1 56 -6 60
-11 5 -7 8 -7 8 2 0 6 5 12 11 12 5 0 7 -6 3 -12 -6 -10 -5 -10 7 -1 18 15 55
10 51 -7 -1 -6 2 -9 8 -5 6 3 8 11 5 16 -4 5 -1 9 4 9 6 0 11 -6 11 -12 0 -9
3 -10 8 -2 9 14 43 14 61 0 11 -8 13 -8 7 2 -11 18 5 14 20 -5 12 -15 13 -15
8 -2 -4 14 3 16 48 16 29 -1 56 -6 60 -11 5 -7 8 -7 8 2 0 6 5 12 11 12 5 0 7
-5 3 -12 -5 -7 -3 -8 7 -2 16 10 160 14 154 4 -2 -4 2 -7 10 -7 8 0 12 4 9 9
-3 4 5 6 18 4 13 -2 22 -9 20 -16 -1 -6 2 -9 8 -5 6 3 8 11 5 16 -4 5 -1 9 4
9 6 0 11 -6 11 -12 0 -9 4 -8 10 2 9 13 11 13 20 0 6 -10 10 -11 10 -2 0 6 5
12 11 12 5 0 7 -6 3 -12 -6 -10 -4 -10 7 -2 8 6 23 11 34 11 11 0 26 -5 34
-11 11 -8 13 -8 7 2 -4 6 -3 12 3 12 5 0 12 -6 14 -12 4 -10 6 -10 6 0 1 6 6
12 12 12 5 0 8 -4 4 -9 -3 -5 0 -13 6 -17 7 -4 9 -3 5 4 -8 13 10 26 24 17 8
-5 7 -12 -2 -23 -12 -15 -11 -16 4 -3 10 7 15 17 12 22 -3 5 0 9 5 9 6 0 11
-6 11 -12 0 -9 4 -8 10 2 9 13 11 13 20 0 7 -11 10 -11 10 -2 0 8 10 11 28 9
16 -3 26 -10 24 -18 -1 -9 3 -7 12 4 10 14 15 15 19 5 4 -10 6 -10 6 1 1 11 4
11 18 0 9 -8 14 -9 11 -4 -4 6 10 11 33 11 22 1 39 -4 39 -10 0 -6 5 -4 10 4
7 11 10 11 10 2 0 -8 5 -10 13 -5 6 4 22 8 35 9 17 1 21 -3 17 -14 -5 -14 -4
-14 12 0 18 16 32 16 67 2 12 -4 17 -4 13 2 -10 17 77 10 93 -6 8 -9 11 -10 6
-3 -10 15 -14 14 52 17 47 1 56 -3 54 -26 -1 -3 6 -12 15 -20 14 -11 16 -11 8
2 -19 30 -15 46 10 46 14 0 25 -4 25 -8 0 -4 5 -8 11 -8 5 0 8 4 5 8 -7 12 38
9 46 -3 5 -6 8 -4 8 4 0 11 4 9 15 -5 13 -16 14 -17 9 -1 -7 19 15 21 28 2 5
-6 8 -4 8 4 0 11 4 9 15 -5 9 -11 14 -13 13 -5 -2 10 8 14 35 15 20 1 37 -3
37 -9 0 -5 5 -3 10 5 9 13 10 13 10 0 0 -9 3 -11 8 -5 4 6 40 11 80 11 60 -1
72 -3 67 -16 -3 -9 1 -7 10 4 11 14 15 16 15 5 0 -8 3 -10 8 -4 9 13 62 15 62
3 0 -5 6 -6 13 -1 20 12 37 12 37 0 0 -8 3 -8 8 -2 10 14 62 15 62 1 0 -6 5
-4 10 4 9 13 10 13 10 0 0 -13 1 -13 10 0 7 11 10 11 10 2 0 -8 5 -10 13 -5
18 12 117 11 117 -2 0 -5 5 -3 10 5 9 13 10 13 10 0 0 -13 1 -13 10 0 9 13 11
13 20 0 9 -13 10 -13 10 0 0 12 2 12 9 1 5 -8 11 -9 15 -3 7 12 24 11 45 -2
10 -7 12 -5 6 5 -5 8 5 3 21 -11 16 -14 23 -18 17 -10 -7 8 -13 17 -13 20 0 8
157 6 166 -3 10 -10 26 -9 20 1 -3 5 1 9 9 9 8 0 15 -5 15 -11 0 -6 5 -4 10 4
8 12 10 12 10 1 0 -11 3 -11 17 0 20 17 16 17 38 -1 17 -13 18 -13 10 0 -4 8
5 4 21 -10 16 -14 23 -18 17 -10 -7 8 -13 17 -13 20 0 8 157 6 166 -3 10 -10
26 -9 20 1 -7 12 48 9 56 -3 5 -6 8 -4 8 5 0 13 1 13 10 0 5 -8 10 -10 10 -5
0 6 30 10 75 10 63 0 74 -2 70 -15 -3 -9 1 -7 10 4 11 14 15 16 15 5 0 -8 3
-10 8 -4 9 13 62 15 62 3 0 -5 6 -6 13 -1 20 12 37 12 37 0 0 -8 3 -8 8 -2 10
14 62 15 62 1 0 -6 5 -4 10 4 9 13 10 13 10 0 0 -13 1 -13 10 0 7 11 10 11 10
2 0 -8 5 -10 13 -5 18 12 117 11 117 -2 0 -5 5 -3 10 5 9 13 10 13 10 0 0 -13
1 -13 10 0 9 13 11 13 20 0 9 -13 10 -13 10 0 0 12 2 12 9 1 5 -8 11 -9 15 -3
7 12 24 11 45 -2 10 -7 12 -5 6 5 -5 8 5 3 21 -11 16 -14 23 -18 17 -10 -18
20 -16 29 5 26 9 -2 17 -8 17 -14 0 -6 4 -14 8 -19 5 -4 8 -3 7 2 -5 23 1 32
23 31 28 -2 49 -15 42 -26 -3 -5 -1 -11 4 -15 6 -3 8 5 6 18 -4 19 0 23 20 23
14 0 25 -5 25 -10 0 -6 5 -4 10 4 9 13 10 13 10 0 0 -13 1 -13 10 0 9 13 10
13 10 0 0 -13 1 -13 10 0 8 12 10 12 10 1 0 -11 3 -11 17 0 17 15 19 14 42 -4
9 -7 12 -8 8 -1 -7 12 46 11 77 -2 12 -4 17 -4 13 2 -3 6 9 10 29 10 19 0 34
-4 34 -9 0 -4 6 -5 12 -1 20 13 148 13 148 0 0 -6 5 -4 10 4 9 13 10 13 10 0
0 -9 3 -11 8 -5 10 15 38 12 34 -4 -1 -7 2 -10 8 -6 6 3 8 11 5 16 -4 5 -1 9
4 9 6 0 11 -6 11 -12 0 -9 4 -8 10 2 9 13 11 13 20 0 6 -10 10 -11 10 -2 0 6
5 12 11 12 5 0 7 -6 3 -12 -6 -10 -4 -10 7 -2 8 6 23 11 34 11 11 0 26 -5 34
-11 11 -8 13 -8 7 2 -4 6 -3 12 3 12 5 0 12 -6 14 -12 4 -10 6 -10 6 0 1 6 6
12 12 12 5 0 8 -4 4 -9 -3 -5 0 -13 6 -17 7 -4 9 -3 5 4 -8 13 10 26 24 17 8
-5 7 -12 -2 -23 -12 -15 -11 -16 4 -3 10 7 15 17 12 22 -3 5 0 9 5 9 6 0 11
-6 11 -12 0 -9 4 -8 10 2 9 13 11 13 20 0 5 -8 10 -10 10 -3 0 7 17 10 44 10
26 -1 42 -6 39 -12 -3 -5 0 -4 8 3 7 6 17 12 22 12 4 0 5 -6 1 -12 -6 -10 -5
-10 7 -1 16 13 36 12 58 -1 10 -6 12 -5 7 2 -4 7 -2 12 3 12 6 0 11 -6 11 -12
0 -9 3 -10 8 -2 9 14 43 14 61 0 11 -8 13 -8 7 2 -11 18 5 14 20 -5 12 -15 13
-15 8 -2 -4 14 3 16 48 16 29 -1 56 -6 60 -11 5 -7 8 -7 8 2 0 6 5 12 11 12 5
0 7 -6 3 -12 -6 -10 -5 -10 7 -1 18 15 55 10 51 -7 -1 -6 2 -9 8 -5 6 3 8 11
5 16 -4 5 -1 9 4 9 6 0 11 -6 11 -12 0 -9 3 -10 8 -2 9 14 43 14 61 0 11 -8
13 -8 7 2 -11 18 5 14 20 -5 12 -15 13 -15 8 -2 -4 14 3 16 48 16 29 -1 56 -6
60 -11 5 -7 8 -7 8 2 0 6 5 12 11 12 5 0 7 -5 3 -12 -5 -8 -3 -8 7 -2 19 12
69 13 69 1 0 -6 5 -6 13 0 15 11 47 11 66 -1 9 -6 12 -5 8 0 -7 12 152 12 171
1 7 -5 12 -3 12 4 0 9 3 9 14 0 11 -9 16 -9 21 0 6 8 10 7 16 -2 7 -12 9 -12
9 0 0 10 3 11 13 2 10 -8 17 -7 25 1 9 9 12 9 12 -3 0 -11 2 -11 9 -1 4 8 12
14 16 14 4 0 12 -6 16 -14 5 -7 9 -8 9 -2 0 6 17 10 42 9 81 -4 84 0 84 90 -1
61 2 79 12 77 8 -1 11 2 7 7 -3 6 -11 8 -19 5 -8 -3 -13 5 -13 23 -1 32 -8 73
-22 121 -5 17 -7 32 -3 32 3 0 1 5 -6 12 -13 13 -16 44 -4 51 4 2 2 3 -5 1
-18 -4 -24 8 -11 23 9 11 8 13 -3 11 -9 -2 -13 4 -11 15 2 9 -1 17 -6 17 -15
0 -21 37 -8 51 8 9 8 10 -2 5 -12 -7 -19 3 -24 39 -2 11 -9 26 -16 34 -7 7
-11 20 -8 27 3 8 2 14 -2 14 -9 0 -45 76 -45 95 0 8 -4 15 -8 15 -10 0 -42 67
-42 86 0 7 -5 12 -11 11 -6 -1 -10 9 -9 23 1 14 -1 19 -3 13 -4 -10 -9 -10
-20 1 -18 19 -18 40 1 33 8 -4 17 -2 20 3 3 5 -7 7 -23 5 -23 -3 -32 2 -46 26
-10 16 -27 40 -39 54 -48 52 -82 98 -79 106 1 5 -2 8 -6 7 -11 -4 -78 63 -74
74 1 4 -4 7 -10 6 -7 -2 -12 5 -12 14 1 10 -1 16 -5 15 -15 -4 -51 25 -45 36
4 7 4 9 -1 5 -13 -12 -34 11 -28 30 4 13 3 14 -5 3 -8 -11 -16 -8 -43 17 -19
17 -45 40 -59 51 -14 11 -30 25 -37 31 -7 5 -16 10 -20 10 -5 0 -26 17 -48 38
-21 20 -35 30 -30 22 8 -13 6 -13 -7 -2 -9 8 -14 21 -11 30 4 13 2 14 -5 4
-16 -23 -127 49 -117 76 4 12 3 13 -10 2 -12 -10 -18 -10 -30 0 -18 15 -3 40
23 40 8 0 12 3 9 7 -4 3 10 22 30 41 21 20 31 32 23 27 -8 -4 -5 2 8 14 13 13
27 34 32 47 8 20 15 23 36 20 15 -3 23 -2 19 2 -3 4 -11 8 -16 8 -5 1 -12 2
-15 3 -4 0 1 12 9 24 13 21 32 77 42 127 2 8 4 15 5 15 1 0 3 24 5 53 2 30 6
60 9 68 3 8 1 14 -3 14 -5 0 -8 13 -7 30 1 16 -1 31 -6 32 -4 2 -9 19 -10 40
-2 20 -5 34 -7 32 -8 -7 -41 78 -34 89 3 5 1 7 -5 3 -6 -3 -13 -2 -17 4 -3 5
-1 10 4 10 6 0 11 4 11 9 0 5 -6 8 -12 7 -7 0 -14 4 -16 9 -2 6 -10 14 -18 18
-8 4 -14 15 -14 24 0 9 -3 13 -7 10 -3 -4 -15 0 -25 9 -14 13 -15 20 -7 31 9
11 8 12 -4 7 -15 -5 -24 -1 -66 36 -9 8 -29 21 -44 29 -15 8 -27 17 -27 21 0
11 58 59 64 53 3 -4 6 0 6 8 0 23 76 104 83 88 3 -8 6 -5 6 8 1 21 18 45 81
112 13 14 24 28 24 31 -1 3 8 17 19 32 15 20 26 25 46 22 19 -3 22 -2 11 5 -8
5 -18 7 -22 5 -4 -3 -8 0 -8 5 0 6 3 11 8 11 4 0 15 14 24 31 10 17 22 28 27
25 5 -3 7 3 4 14 -3 11 -1 20 4 20 5 0 15 12 21 26 7 15 17 22 24 18 7 -4 8
-3 4 4 -9 15 23 64 37 55 5 -3 7 -2 4 3 -7 12 23 75 33 69 4 -3 7 3 6 13 0 9
5 16 12 14 8 -1 11 2 7 7 -7 12 22 71 35 71 5 0 7 7 4 15 -4 8 -1 15 5 15 6 0
11 3 10 8 -2 15 14 52 23 52 5 0 6 4 3 10 -3 6 -1 10 4 10 6 0 10 3 9 8 -1 4
2 17 6 30 6 17 13 21 27 17 11 -4 19 -2 19 5 0 6 -4 9 -9 5 -17 -10 -23 16 -8
38 8 12 20 39 26 60 7 20 16 35 20 33 4 -3 8 7 9 22 1 14 7 29 13 33 6 3 10 8
9 10 -5 10 22 89 30 89 5 0 7 9 5 20 -2 13 2 23 11 27 13 5 13 7 2 14 -10 7
-11 9 0 9 7 0 11 3 9 8 -3 4 0 18 6 32 5 14 12 34 14 45 9 39 11 50 13 50 1 0
3 7 5 15 2 8 13 56 24 105 28 115 32 135 36 165 5 32 14 86 23 130 4 19 7 47
7 63 -1 15 2 27 6 27 4 0 6 12 3 26 -3 15 -1 23 5 20 5 -4 13 -2 16 4 4 6 1 9
-6 8 -18 -4 -18 24 1 40 8 8 9 11 3 7 -9 -4 -13 3 -13 25 0 17 4 29 9 25 5 -3
13 -1 16 5 4 6 1 9 -7 8 -15 -3 -21 49 -6 58 4 3 4 13 0 22 -8 16 -8 30 -2 50
1 4 3 18 3 32 1 15 7 24 15 22 8 -1 11 2 7 8 -3 6 -11 8 -16 5 -5 -4 -9 4 -9
16 0 19 2 20 18 8 16 -13 16 -13 2 5 -22 29 -24 184 -2 211 16 18 16 19 0 7
-21 -17 -25 -9 -27 63 -3 96 -6 129 -13 141 -4 6 -8 45 -10 86 -2 42 -7 73
-12 71 -5 -3 -7 8 -4 25 2 17 0 28 -5 25 -5 -3 -8 3 -6 13 1 11 -1 31 -6 47
-5 18 -3 33 5 42 11 13 10 14 -4 9 -11 -4 -16 -1 -16 11 0 9 4 14 9 10 5 -3
13 -1 16 5 4 6 3 10 -2 9 -25 -4 -35 3 -30 21 3 10 0 21 -7 23 -7 3 -4 13 9
28 11 13 13 18 4 11 -17 -13 -29 -7 -29 15 0 8 5 11 10 8 6 -3 10 -1 10 4 0 6
-7 11 -15 11 -18 0 -19 12 -2 29 10 10 9 11 -4 6 -12 -5 -18 6 -28 47 -7 29
-12 57 -11 62 1 5 -4 12 -11 16 -6 4 -12 21 -13 38 0 17 -4 28 -8 25 -5 -2 -8
2 -8 10 0 8 -9 36 -21 62 -11 26 -19 56 -16 66 3 10 1 17 -4 14 -11 -7 -42 52
-34 65 3 6 2 10 -4 10 -10 0 -48 89 -43 103 1 4 -2 7 -7 7 -9 0 -35 54 -31 66
1 4 -3 10 -8 13 -16 11 -61 104 -55 114 3 6 2 7 -4 4 -13 -8 -56 70 -47 85 4
6 3 8 -3 5 -6 -4 -18 4 -27 18 -9 14 -13 25 -9 25 5 0 0 5 -9 11 -10 5 -18 16
-18 23 0 8 -7 19 -15 26 -9 7 -14 19 -11 27 3 8 1 11 -4 8 -6 -3 -13 2 -17 12
-3 10 -12 22 -20 26 -7 4 -13 15 -13 22 0 8 -3 15 -7 15 -5 0 -17 12 -27 27
-12 17 -14 23 -5 19 8 -5 3 2 -11 15 -14 13 -37 37 -50 52 -21 24 -22 30 -10
38 13 8 13 9 -1 7 -17 -3 -141 130 -133 144 3 5 1 7 -5 6 -10 -3 -80 71 -81
85 0 4 -7 7 -15 7 -8 0 -15 5 -15 10 0 10 -36 50 -46 50 -3 0 -33 27 -67 61
-34 34 -72 68 -85 77 -13 8 -21 20 -18 27 2 7 -3 12 -12 11 -9 0 -16 5 -14 12
1 6 -1 11 -5 11 -18 -3 -31 2 -54 22 -13 11 -33 28 -44 38 -11 9 -42 32 -68
49 -26 18 -47 38 -47 43 0 6 -4 8 -9 5 -5 -3 -21 6 -35 19 -15 14 -32 25 -37
25 -6 0 -9 6 -6 13 2 6 10 11 16 9 7 -1 9 2 6 8 -5 8 -13 6 -25 -5 -17 -15
-20 -15 -38 2 -10 10 -25 19 -33 21 -8 2 -21 11 -29 20 -9 9 -22 18 -30 20
-28 6 -61 33 -54 44 4 7 3 8 -4 4 -16 -10 -132 46 -127 61 2 7 -1 15 -7 19 -7
4 -8 3 -4 -4 4 -7 1 -12 -8 -12 -9 0 -16 4 -16 8 0 5 -6 9 -12 9 -7 0 -44 15
-81 32 -46 21 -65 36 -60 44 4 8 1 7 -10 -2 -12 -9 -17 -10 -17 -2 0 7 -4 9
-10 6 -9 -6 -14 8 -11 28 1 5 -3 6 -9 2 -6 -3 -8 -10 -5 -15 3 -5 -8 -3 -24 3
-17 6 -28 13 -26 16 2 4 -7 7 -18 8 -12 0 -35 7 -52 14 -34 14 -30 13 -72 23
-18 4 -37 15 -43 24 -6 11 -9 12 -10 4 0 -7 -5 -10 -10 -7 -6 4 -7 12 -4 18 5
9 4 9 -6 0 -8 -7 -19 -9 -29 -4 -18 9 -92 25 -103 23 -8 -2 -12 14 -9 31 1 5
-3 6 -9 2 -6 -3 -8 -11 -5 -16 4 -5 2 -9 -4 -9 -5 0 -12 4 -15 9 -3 5 -20 11
-38 14 -18 3 -49 8 -68 12 -19 4 -39 8 -45 8 -5 1 -16 9 -23 17 -8 9 -11 9 -7
2 5 -10 -2 -12 -32 -7 -58 10 -62 12 -58 34 2 11 0 23 -4 26 -5 2 -8 -5 -7
-18 1 -16 -5 -23 -21 -25 -16 -2 -23 2 -23 12 0 9 -4 16 -10 16 -5 0 -7 -6 -4
-13 7 -20 -137 1 -154 22 -11 14 -11 14 -5 -3 4 -11 2 -17 -3 -13 -5 3 -39 6
-74 8 -36 1 -73 6 -84 11 -14 8 -17 7 -11 -3 6 -8 4 -10 -5 -4 -16 10 -280 12
-287 2 -2 -4 -9 -4 -15 -1 -15 9 -88 12 -94 3z m-2314 -6609 c0 -5 -2 -10 -4
-10 -3 0 -8 5 -11 10 -3 6 -1 10 4 10 6 0 11 -4 11 -10z"/>
<path d="M5440 9126 c0 -2 8 -10 18 -17 15 -13 16 -12 3 4 -13 16 -21 21 -21
13z"/>
<path d="M6036 9113 c-6 -14 -5 -15 5 -6 7 7 10 15 7 18 -3 3 -9 -2 -12 -12z"/>
<path d="M4400 9100 c-9 -6 -10 -10 -3 -10 6 0 15 5 18 10 8 12 4 12 -15 0z"/>
<path d="M5819 9108 c-5 -18 -6 -38 -1 -34 7 8 12 36 6 36 -2 0 -4 -1 -5 -2z"/>
<path d="M4254 9078 c-4 -7 -4 -10 1 -6 4 4 15 2 24 -5 14 -11 14 -10 2 6 -16
20 -18 21 -27 5z"/>
<path d="M5736 9073 c-6 -14 -5 -15 5 -6 7 7 10 15 7 18 -3 3 -9 -2 -12 -12z"/>
<path d="M4016 9058 c3 -5 10 -6 15 -3 13 9 11 12 -6 12 -8 0 -12 -4 -9 -9z"/>
<path d="M4056 9062 c-2 -4 -1 -14 4 -22 7 -11 9 -9 7 8 -1 24 -3 26 -11 14z"/>
<path d="M4093 9063 c4 -3 1 -13 -6 -22 -11 -14 -10 -14 5 -2 16 12 16 31 1
31 -4 0 -3 -3 0 -7z"/>
<path d="M4136 9061 c-3 -5 2 -15 12 -22 15 -12 16 -12 5 2 -7 9 -10 19 -6 22
3 4 4 7 0 7 -3 0 -8 -4 -11 -9z"/>
<path d="M4193 9055 c0 -8 4 -12 9 -9 5 3 6 10 3 15 -9 13 -12 11 -12 -6z"/>
<path d="M5906 9022 c-3 -5 1 -9 9 -9 8 0 15 4 15 9 0 4 -4 8 -9 8 -6 0 -12
-4 -15 -8z"/>
<path d="M6006 9018 c3 -5 10 -6 15 -3 13 9 11 12 -6 12 -8 0 -12 -4 -9 -9z"/>
<path d="M3945 9000 c-3 -6 1 -7 9 -4 18 7 21 14 7 14 -6 0 -13 -4 -16 -10z"/>
<path d="M6094 8962 c4 -3 14 -7 22 -8 9 -1 13 0 10 4 -4 3 -14 7 -22 8 -9 1
-13 0 -10 -4z"/>
<path d="M3646 8938 c3 -5 10 -6 15 -3 13 9 11 12 -6 12 -8 0 -12 -4 -9 -9z"/>
<path d="M6375 8911 c-3 -5 -2 -12 3 -15 5 -3 9 1 9 9 0 17 -3 19 -12 6z"/>
<path d="M3576 8902 c-3 -4 4 -9 15 -9 23 -2 25 3 4 10 -8 4 -16 3 -19 -1z"/>
<path d="M3710 8900 c0 -5 5 -10 11 -10 5 0 7 5 4 10 -3 6 -8 10 -11 10 -2 0
-4 -4 -4 -10z"/>
<path d="M6433 8885 c0 -8 4 -12 9 -9 5 3 6 10 3 15 -9 13 -12 11 -12 -6z"/>
<path d="M3350 8886 c0 -2 7 -7 16 -10 8 -3 12 -2 9 4 -6 10 -25 14 -25 6z"/>
<path d="M3630 8881 c0 -6 4 -13 10 -16 6 -3 7 1 4 9 -7 18 -14 21 -14 7z"/>
<path d="M6355 8861 c-3 -5 -2 -12 3 -15 5 -3 9 1 9 9 0 17 -3 19 -12 6z"/>
<path d="M6471 8847 c-8 -10 -7 -14 2 -14 8 0 14 6 14 14 0 7 -1 13 -2 13 -2
0 -8 -6 -14 -13z"/>
<path d="M3395 8819 c-3 -4 2 -6 10 -5 21 3 28 13 10 13 -9 0 -18 -4 -20 -8z"/>
<path d="M3455 8820 c-3 -5 -1 -10 4 -10 6 0 11 5 11 10 0 6 -2 10 -4 10 -3 0
-8 -4 -11 -10z"/>
<path d="M6570 8780 c0 -5 5 -10 11 -10 5 0 7 5 4 10 -3 6 -8 10 -11 10 -2 0
-4 -4 -4 -10z"/>
<path d="M3413 8765 c0 -8 4 -12 9 -9 5 3 6 10 3 15 -9 13 -12 11 -12 -6z"/>
<path d="M3196 8722 c-3 -5 1 -9 9 -9 8 0 12 4 9 9 -3 4 -7 8 -9 8 -2 0 -6 -4
-9 -8z"/>
<path d="M6675 8701 c-3 -5 -2 -12 3 -15 5 -3 9 1 9 9 0 17 -3 19 -12 6z"/>
<path d="M6749 8677 c6 -8 7 -18 3 -22 -4 -5 -1 -5 6 -1 10 6 10 11 1 22 -6 8
-14 14 -16 14 -3 0 0 -6 6 -13z"/>
<path d="M3130 8660 c0 -5 5 -10 11 -10 5 0 7 5 4 10 -3 6 -8 10 -11 10 -2 0
-4 -4 -4 -10z"/>
<path d="M3159 8648 c-5 -18 -6 -38 -1 -34 7 8 12 36 6 36 -2 0 -4 -1 -5 -2z"/>
<path d="M6766 8642 c-3 -5 1 -9 9 -9 8 0 12 4 9 9 -3 4 -7 8 -9 8 -2 0 -6 -4
-9 -8z"/>
<path d="M6896 8635 c-9 -26 -7 -32 5 -12 6 10 9 21 6 23 -2 3 -7 -2 -11 -11z"/>
<path d="M3056 8627 c3 -10 9 -15 12 -12 3 3 0 11 -7 18 -10 9 -11 8 -5 -6z"/>
<path d="M3013 8583 c4 -3 1 -13 -6 -22 -11 -14 -10 -14 5 -2 16 12 16 31 1
31 -4 0 -3 -3 0 -7z"/>
<path d="M3080 8580 c-8 -5 -10 -10 -5 -10 6 0 17 5 25 10 8 5 11 10 5 10 -5
0 -17 -5 -25 -10z"/>
<path d="M6920 8580 c-9 -6 -10 -10 -3 -10 6 0 15 5 18 10 8 12 4 12 -15 0z"/>
<path d="M6950 8576 c0 -2 8 -10 18 -17 15 -13 16 -12 3 4 -13 16 -21 21 -21
13z"/>
<path d="M2995 8529 c-4 -6 -5 -12 -2 -15 2 -3 7 2 10 11 7 17 1 20 -8 4z"/>
<path d="M2897 8515 c-4 -8 -3 -16 1 -19 4 -3 9 4 9 15 2 23 -3 25 -10 4z"/>
<path d="M2913 8455 c0 -8 4 -12 9 -9 5 3 6 10 3 15 -9 13 -12 11 -12 -6z"/>
<path d="M7075 8449 c-4 -6 -5 -12 -2 -15 2 -3 7 2 10 11 7 17 1 20 -8 4z"/>
<path d="M2814 8442 c4 -3 14 -7 22 -8 9 -1 13 0 10 4 -4 3 -14 7 -22 8 -9 1
-13 0 -10 -4z"/>
<path d="M7120 8400 c-9 -6 -10 -10 -3 -10 6 0 15 5 18 10 8 12 4 12 -15 0z"/>
<path d="M2795 8360 c3 -5 8 -10 11 -10 2 0 4 5 4 10 0 6 -5 10 -11 10 -5 0
-7 -4 -4 -10z"/>
<path d="M2695 8320 c3 -5 8 -10 11 -10 2 0 4 5 4 10 0 6 -5 10 -11 10 -5 0
-7 -4 -4 -10z"/>
<path d="M7314 8240 c0 -13 4 -16 10 -10 7 7 7 13 0 20 -6 6 -10 3 -10 -10z"/>
<path d="M2579 8228 c-6 -20 -6 -39 0 -42 4 -3 7 6 7 20 0 20 -4 32 -7 22z"/>
<path d="M7375 8220 c-3 -5 -1 -10 4 -10 6 0 11 5 11 10 0 6 -2 10 -4 10 -3 0
-8 -4 -11 -10z"/>
<path d="M2535 8180 c3 -5 8 -10 11 -10 2 0 4 5 4 10 0 6 -5 10 -11 10 -5 0
-7 -4 -4 -10z"/>
<path d="M7370 8176 c0 -2 8 -10 18 -17 15 -13 16 -12 3 4 -13 16 -21 21 -21
13z"/>
<path d="M2570 8160 c0 -5 5 -10 11 -10 5 0 7 5 4 10 -3 6 -8 10 -11 10 -2 0
-4 -4 -4 -10z"/>
<path d="M2499 8148 c-5 -18 -6 -38 -1 -34 7 8 12 36 6 36 -2 0 -4 -1 -5 -2z"/>
<path d="M2459 8108 c-5 -18 -6 -38 -1 -34 7 8 12 36 6 36 -2 0 -4 -1 -5 -2z"/>
<path d="M2499 8098 c-5 -18 -6 -38 -1 -34 7 8 12 36 6 36 -2 0 -4 -1 -5 -2z"/>
<path d="M2414 8076 c1 -8 5 -18 8 -22 4 -3 5 1 4 10 -1 8 -5 18 -8 22 -4 3
-5 -1 -4 -10z"/>
<path d="M7486 8042 c-3 -5 1 -9 9 -9 8 0 12 4 9 9 -3 4 -7 8 -9 8 -2 0 -6 -4
-9 -8z"/>
<path d="M2410 8001 c0 -6 4 -13 10 -16 6 -3 7 1 4 9 -7 18 -14 21 -14 7z"/>
<path d="M2400 7960 c-9 -6 -10 -10 -3 -10 6 0 15 5 18 10 8 12 4 12 -15 0z"/>
<path d="M7540 7966 c0 -2 8 -10 18 -17 15 -13 16 -12 3 4 -13 16 -21 21 -21
13z"/>
<path d="M7610 7959 c0 -5 5 -7 10 -4 6 3 10 8 10 11 0 2 -4 4 -10 4 -5 0 -10
-5 -10 -11z"/>
<path d="M2296 7918 c3 -5 10 -6 15 -3 13 9 11 12 -6 12 -8 0 -12 -4 -9 -9z"/>
<path d="M2335 7921 c-3 -5 -2 -12 3 -15 5 -3 9 1 9 9 0 17 -3 19 -12 6z"/>
<path d="M7626 7902 c-3 -5 1 -9 9 -9 8 0 12 4 9 9 -3 4 -7 8 -9 8 -2 0 -6 -4
-9 -8z"/>
<path d="M2307 7879 c7 -7 15 -10 18 -7 3 3 -2 9 -12 12 -14 6 -15 5 -6 -5z"/>
<path d="M7664 7822 c4 -3 14 -7 22 -8 9 -1 13 0 10 4 -4 3 -14 7 -22 8 -9 1
-13 0 -10 -4z"/>
<path d="M7714 7822 c4 -3 14 -7 22 -8 9 -1 13 0 10 4 -4 3 -14 7 -22 8 -9 1
-13 0 -10 -4z"/>
<path d="M7793 7725 c0 -8 4 -12 9 -9 5 3 6 10 3 15 -9 13 -12 11 -12 -6z"/>
<path d="M2135 7701 c-3 -5 -2 -12 3 -15 5 -3 9 1 9 9 0 17 -3 19 -12 6z"/>
<path d="M2159 7673 c-13 -16 -12 -17 4 -4 16 13 21 21 13 21 -2 0 -10 -8 -17
-17z"/>
<path d="M7839 7673 c-13 -16 -12 -17 4 -4 9 7 17 15 17 17 0 8 -8 3 -21 -13z"/>
<path d="M7900 7600 c8 -5 20 -10 25 -10 6 0 3 5 -5 10 -8 5 -19 10 -25 10 -5
0 -3 -5 5 -10z"/>
<path d="M2105 7580 c-3 -6 1 -7 9 -4 18 7 21 14 7 14 -6 0 -13 -4 -16 -10z"/>
<path d="M2030 7539 c0 -5 5 -7 10 -4 6 3 10 8 10 11 0 2 -4 4 -10 4 -5 0 -10
-5 -10 -11z"/>
<path d="M2020 7486 c0 -2 8 -10 18 -17 15 -13 16 -12 3 4 -13 16 -21 21 -21
13z"/>
<path d="M7945 7440 c-3 -6 1 -7 9 -4 18 7 21 14 7 14 -6 0 -13 -4 -16 -10z"/>
<path d="M1975 7420 c-3 -5 -1 -10 4 -10 6 0 11 5 11 10 0 6 -2 10 -4 10 -3 0
-8 -4 -11 -10z"/>
<path d="M7970 7420 c0 -5 5 -10 11 -10 5 0 7 5 4 10 -3 6 -8 10 -11 10 -2 0
-4 -4 -4 -10z"/>
<path d="M7999 7373 c-13 -16 -12 -17 4 -4 9 7 17 15 17 17 0 8 -8 3 -21 -13z"/>
<path d="M1906 7322 c-3 -5 1 -9 9 -9 8 0 12 4 9 9 -3 4 -7 8 -9 8 -2 0 -6 -4
-9 -8z"/>
<path d="M1910 7285 c0 -7 30 -13 34 -7 3 4 -4 9 -15 9 -10 1 -19 0 -19 -2z"/>
<path d="M8029 7277 c6 -8 7 -18 3 -22 -4 -5 -1 -5 6 -1 10 6 10 11 1 22 -6 8
-14 14 -16 14 -3 0 0 -6 6 -13z"/>
<path d="M1854 7236 c1 -8 5 -18 8 -22 4 -3 5 1 4 10 -1 8 -5 18 -8 22 -4 3
-5 -1 -4 -10z"/>
<path d="M8095 7221 c-3 -5 -2 -12 3 -15 5 -3 9 1 9 9 0 17 -3 19 -12 6z"/>
<path d="M1850 7161 c0 -6 4 -13 10 -16 6 -3 7 1 4 9 -7 18 -14 21 -14 7z"/>
<path d="M1813 7125 c0 -8 4 -12 9 -9 5 3 6 10 3 15 -9 13 -12 11 -12 -6z"/>
<path d="M1756 7118 c3 -5 10 -6 15 -3 13 9 11 12 -6 12 -8 0 -12 -4 -9 -9z"/>
<path d="M1853 7115 c0 -8 4 -12 9 -9 5 3 6 10 3 15 -9 13 -12 11 -12 -6z"/>
<path d="M8096 7118 c3 -5 10 -6 15 -3 13 9 11 12 -6 12 -8 0 -12 -4 -9 -9z"/>
<path d="M8119 7073 c-12 -16 -12 -17 2 -6 9 7 20 9 24 5 5 -4 5 -1 1 6 -9 16
-11 15 -27 -5z"/>
<path d="M1710 7056 c0 -2 8 -10 18 -17 15 -13 16 -12 3 4 -13 16 -21 21 -21
13z"/>
<path d="M1775 7040 c3 -5 8 -10 11 -10 2 0 4 5 4 10 0 6 -5 10 -11 10 -5 0
-7 -4 -4 -10z"/>
<path d="M8150 6966 c0 -2 7 -7 16 -10 8 -3 12 -2 9 4 -6 10 -25 14 -25 6z"/>
<path d="M8193 6955 c0 -8 4 -12 9 -9 4 3 8 9 8 15 0 5 -4 9 -8 9 -5 0 -9 -7
-9 -15z"/>
<path d="M1755 6950 c-4 -6 -11 -7 -17 -4 -7 4 -8 2 -4 -5 6 -9 11 -9 22 0 14
11 18 19 10 19 -3 0 -8 -5 -11 -10z"/>
<path d="M8235 6911 c-3 -5 -2 -12 3 -15 5 -3 9 1 9 9 0 17 -3 19 -12 6z"/>
<path d="M1735 6900 c3 -5 8 -10 11 -10 2 0 4 5 4 10 0 6 -5 10 -11 10 -5 0
-7 -4 -4 -10z"/>
<path d="M1753 6845 c0 -8 4 -12 9 -9 5 3 6 10 3 15 -9 13 -12 11 -12 -6z"/>
<path d="M1640 6840 c-9 -6 -10 -10 -3 -10 6 0 15 5 18 10 8 12 4 12 -15 0z"/>
<path d="M8255 6820 c-3 -5 -1 -10 4 -10 6 0 11 5 11 10 0 6 -2 10 -4 10 -3 0
-8 -4 -11 -10z"/>
<path d="M1676 6762 c-3 -5 1 -9 9 -9 8 0 12 4 9 9 -3 4 -7 8 -9 8 -2 0 -6 -4
-9 -8z"/>
<path d="M8274 6742 c4 -3 14 -7 22 -8 9 -1 13 0 10 4 -4 3 -14 7 -22 8 -9 1
-13 0 -10 -4z"/>
<path d="M1656 6698 c3 -5 10 -6 15 -3 13 9 11 12 -6 12 -8 0 -12 -4 -9 -9z"/>
<path d="M1690 6681 c0 -6 4 -13 10 -16 6 -3 7 1 4 9 -7 18 -14 21 -14 7z"/>
<path d="M1655 6620 c-3 -5 -1 -10 4 -10 6 0 11 5 11 10 0 6 -2 10 -4 10 -3 0
-8 -4 -11 -10z"/>
<path d="M1606 6578 c3 -5 10 -6 15 -3 13 9 11 12 -6 12 -8 0 -12 -4 -9 -9z"/>
<path d="M1635 6500 c-3 -5 -1 -10 4 -10 6 0 11 5 11 10 0 6 -2 10 -4 10 -3 0
-8 -4 -11 -10z"/>
<path d="M8310 6446 c0 -2 7 -7 16 -10 8 -3 12 -2 9 4 -6 10 -25 14 -25 6z"/>
<path d="M1585 6360 c-3 -6 1 -7 9 -4 18 7 21 14 7 14 -6 0 -13 -4 -16 -10z"/>
<path d="M8373 6331 c0 -11 5 -18 9 -15 4 3 5 11 1 19 -7 21 -12 19 -10 -4z"/>
<path d="M1553 6285 c0 -8 4 -12 9 -9 5 3 6 10 3 15 -9 13 -12 11 -12 -6z"/>
<path d="M8465 6240 c-3 -6 1 -7 9 -4 18 7 21 14 7 14 -6 0 -13 -4 -16 -10z"/>
<path d="M1585 6200 c-3 -6 1 -7 9 -4 18 7 21 14 7 14 -6 0 -13 -4 -16 -10z"/>
<path d="M8393 6135 c0 -8 4 -12 9 -9 5 3 6 10 3 15 -9 13 -12 11 -12 -6z"/>
<path d="M1526 6062 c-3 -5 1 -9 9 -9 8 0 12 4 9 9 -3 4 -7 8 -9 8 -2 0 -6 -4
-9 -8z"/>
<path d="M1539 5988 c-5 -18 -6 -38 -1 -34 7 8 12 36 6 36 -2 0 -4 -1 -5 -2z"/>
<path d="M1553 5925 c0 -8 4 -12 9 -9 5 3 6 10 3 15 -9 13 -12 11 -12 -6z"/>
<path d="M8396 5927 c3 -10 9 -15 12 -12 3 3 0 11 -7 18 -10 9 -11 8 -5 -6z"/>
<path d="M8376 5887 c3 -10 9 -15 12 -12 3 3 0 11 -7 18 -10 9 -11 8 -5 -6z"/>
<path d="M1536 5858 c3 -5 10 -6 15 -3 13 9 11 12 -6 12 -8 0 -12 -4 -9 -9z"/>
<path d="M1535 5780 c3 -5 8 -10 11 -10 2 0 4 5 4 10 0 6 -5 10 -11 10 -5 0
-7 -4 -4 -10z"/>
<path d="M8390 5779 c0 -5 5 -7 10 -4 6 3 10 8 10 11 0 2 -4 4 -10 4 -5 0 -10
-5 -10 -11z"/>
<path d="M8390 5659 c0 -5 5 -7 10 -4 6 3 10 8 10 11 0 2 -4 4 -10 4 -5 0 -10
-5 -10 -11z"/>
<path d="M1530 5620 c0 -5 5 -10 11 -10 5 0 7 5 4 10 -3 6 -8 10 -11 10 -2 0
-4 -4 -4 -10z"/>
<path d="M1555 5601 c-3 -5 -2 -12 3 -15 5 -3 9 1 9 9 0 17 -3 19 -12 6z"/>
<path d="M8373 5555 c0 -8 4 -12 9 -9 4 3 8 9 8 15 0 5 -4 9 -8 9 -5 0 -9 -7
-9 -15z"/>
<path d="M1535 5539 c-3 -4 2 -6 10 -5 21 3 28 13 10 13 -9 0 -18 -4 -20 -8z"/>
<path d="M8413 5455 c0 -8 4 -12 9 -9 5 3 6 10 3 15 -9 13 -12 11 -12 -6z"/>
<path d="M1540 5400 c-9 -6 -10 -10 -3 -10 6 0 15 5 18 10 8 12 4 12 -15 0z"/>
<path d="M8359 5353 c-13 -16 -12 -17 4 -4 9 7 17 15 17 17 0 8 -8 3 -21 -13z"/>
<path d="M8396 5362 c-3 -5 1 -9 9 -9 8 0 12 4 9 9 -3 4 -7 8 -9 8 -2 0 -6 -4
-9 -8z"/>
<path d="M1575 5340 c-3 -5 -1 -10 4 -10 6 0 11 5 11 10 0 6 -2 10 -4 10 -3 0
-8 -4 -11 -10z"/>
<path d="M8386 5318 c3 -5 10 -6 15 -3 13 9 11 12 -6 12 -8 0 -12 -4 -9 -9z"/>
<path d="M8505 5320 c-3 -6 1 -7 9 -4 18 7 21 14 7 14 -6 0 -13 -4 -16 -10z"/>
<path d="M1575 5300 c3 -5 8 -10 11 -10 2 0 4 5 4 10 0 6 -5 10 -11 10 -5 0
-7 -4 -4 -10z"/>
<path d="M8350 5296 c0 -2 8 -10 18 -17 15 -13 16 -12 3 4 -13 16 -21 21 -21
13z"/>
<path d="M1575 5260 c3 -5 8 -10 11 -10 2 0 4 5 4 10 0 6 -5 10 -11 10 -5 0
-7 -4 -4 -10z"/>
<path d="M8395 5261 c-3 -5 -2 -12 3 -15 5 -3 9 1 9 9 0 17 -3 19 -12 6z"/>
<path d="M1616 5182 c-3 -4 4 -9 15 -9 23 -2 25 3 4 10 -8 4 -16 3 -19 -1z"/>
<path d="M8374 5176 c1 -8 5 -18 8 -22 4 -3 5 1 4 10 -1 8 -5 18 -8 22 -4 3
-5 -1 -4 -10z"/>
<path d="M1635 5151 c-3 -5 -2 -12 3 -15 5 -3 9 1 9 9 0 17 -3 19 -12 6z"/>
<path d="M8315 5151 c-3 -5 -2 -12 3 -15 5 -3 9 1 9 9 0 17 -3 19 -12 6z"/>
<path d="M8355 5071 c-3 -5 -2 -12 3 -15 5 -3 9 1 9 9 0 17 -3 19 -12 6z"/>
<path d="M1650 5060 c0 -5 5 -10 11 -10 5 0 7 5 4 10 -3 6 -8 10 -11 10 -2 0
-4 -4 -4 -10z"/>
<path d="M1594 5022 c4 -3 14 -7 22 -8 9 -1 13 0 10 4 -4 3 -14 7 -22 8 -9 1
-13 0 -10 -4z"/>
<path d="M1675 4971 c-3 -5 -2 -12 3 -15 5 -3 9 1 9 9 0 17 -3 19 -12 6z"/>
<path d="M8315 4911 c-3 -5 -2 -12 3 -15 5 -3 9 1 9 9 0 17 -3 19 -12 6z"/>
<path d="M8293 4829 c-2 -23 3 -25 10 -4 4 8 3 16 -1 19 -4 3 -9 -4 -9 -15z"/>
<path d="M8246 4818 c3 -5 10 -6 15 -3 13 9 11 12 -6 12 -8 0 -12 -4 -9 -9z"/>
<path d="M1700 4680 c-9 -6 -10 -10 -3 -10 6 0 15 5 18 10 8 12 4 12 -15 0z"/>
<path d="M8235 4621 c-3 -5 -2 -12 3 -15 5 -3 9 1 9 9 0 17 -3 19 -12 6z"/>
<path d="M1790 4546 c0 -2 7 -7 16 -10 8 -3 12 -2 9 4 -6 10 -25 14 -25 6z"/>
<path d="M8213 4543 c4 -3 1 -13 -6 -22 -11 -14 -10 -14 5 -2 16 12 16 31 1
31 -4 0 -3 -3 0 -7z"/>
<path d="M8150 4500 c0 -5 5 -10 11 -10 5 0 7 5 4 10 -3 6 -8 10 -11 10 -2 0
-4 -4 -4 -10z"/>
<path d="M1835 4481 c-3 -5 -2 -12 3 -15 5 -3 9 1 9 9 0 17 -3 19 -12 6z"/>
<path d="M1815 4420 c-3 -5 -1 -10 4 -10 6 0 11 5 11 10 0 6 -2 10 -4 10 -3 0
-8 -4 -11 -10z"/>
<path d="M1895 4320 c3 -5 8 -10 11 -10 2 0 4 5 4 10 0 6 -5 10 -11 10 -5 0
-7 -4 -4 -10z"/>
<path d="M1835 4299 c-3 -4 2 -6 10 -5 21 3 28 13 10 13 -9 0 -18 -4 -20 -8z"/>
<path d="M1895 4260 c3 -5 8 -10 11 -10 2 0 4 5 4 10 0 6 -5 10 -11 10 -5 0
-7 -4 -4 -10z"/>
<path d="M1955 4200 c3 -5 8 -10 11 -10 2 0 4 5 4 10 0 6 -5 10 -11 10 -5 0
-7 -4 -4 -10z"/>
<path d="M7976 4153 c-6 -14 -5 -15 5 -6 7 7 10 15 7 18 -3 3 -9 -2 -12 -12z"/>
<path d="M8150 4159 c0 -5 5 -7 10 -4 6 3 10 8 10 11 0 2 -4 4 -10 4 -5 0 -10
-5 -10 -11z"/>
<path d="M1936 4133 c-6 -14 -5 -15 5 -6 7 7 10 15 7 18 -3 3 -9 -2 -12 -12z"/>
<path d="M1976 4102 c-3 -4 4 -9 15 -9 23 -2 25 3 4 10 -8 4 -16 3 -19 -1z"/>
<path d="M2027 4099 c7 -7 15 -10 18 -7 3 3 -2 9 -12 12 -14 6 -15 5 -6 -5z"/>
<path d="M2030 4076 c0 -2 8 -10 18 -17 15 -13 16 -12 3 4 -13 16 -21 21 -21
13z"/>
<path d="M7920 4060 c-9 -6 -10 -10 -3 -10 6 0 15 5 18 10 8 12 4 12 -15 0z"/>
<path d="M7970 4061 c0 -6 4 -13 10 -16 6 -3 7 1 4 9 -7 18 -14 21 -14 7z"/>
<path d="M7910 4037 c0 -2 6 -10 14 -16 11 -9 16 -9 22 1 4 7 4 10 -1 6 -4 -4
-14 -3 -22 3 -7 6 -13 9 -13 6z"/>
<path d="M2074 4016 c1 -8 5 -18 8 -22 4 -3 5 1 4 10 -1 8 -5 18 -8 22 -4 3
-5 -1 -4 -10z"/>
<path d="M8027 3999 c7 -7 15 -10 18 -7 3 3 -2 9 -12 12 -14 6 -15 5 -6 -5z"/>
<path d="M2095 3969 c-4 -6 -5 -12 -2 -15 2 -3 7 2 10 11 7 17 1 20 -8 4z"/>
<path d="M7910 3959 c0 -5 5 -7 10 -4 6 3 10 8 10 11 0 2 -4 4 -10 4 -5 0 -10
-5 -10 -11z"/>
<path d="M7826 3918 c3 -5 10 -6 15 -3 13 9 11 12 -6 12 -8 0 -12 -4 -9 -9z"/>
<path d="M2093 3895 c0 -8 4 -12 9 -9 5 3 6 10 3 15 -9 13 -12 11 -12 -6z"/>
<path d="M7816 3887 c3 -10 9 -15 12 -12 3 3 0 11 -7 18 -10 9 -11 8 -5 -6z"/>
<path d="M7875 3889 c-4 -6 -5 -12 -2 -15 2 -3 7 2 10 11 7 17 1 20 -8 4z"/>
<path d="M2190 3841 c0 -6 4 -13 10 -16 6 -3 7 1 4 9 -7 18 -14 21 -14 7z"/>
<path d="M7815 3821 c-3 -5 -2 -12 3 -15 5 -3 9 1 9 9 0 17 -3 19 -12 6z"/>
<path d="M2150 3816 c0 -2 8 -10 18 -17 15 -13 16 -12 3 4 -13 16 -21 21 -21
13z"/>
<path d="M2230 3796 c0 -2 8 -10 18 -17 15 -13 16 -12 3 4 -13 16 -21 21 -21
13z"/>
<path d="M2260 3746 c0 -2 8 -10 18 -17 15 -13 16 -12 3 4 -13 16 -21 21 -21
13z"/>
<path d="M2256 3682 c-2 -4 -1 -14 4 -22 7 -11 9 -9 7 8 -1 24 -3 26 -11 14z"/>
<path d="M7667 3639 c7 -7 15 -10 18 -7 3 3 -2 9 -12 12 -14 6 -15 5 -6 -5z"/>
<path d="M2315 3631 c-3 -5 -2 -12 3 -15 5 -3 9 1 9 9 0 17 -3 19 -12 6z"/>
<path d="M7600 3615 c-7 -9 -11 -17 -9 -20 3 -2 10 5 17 15 14 24 10 26 -8 5z"/>
<path d="M2359 3553 c-13 -16 -12 -17 4 -4 9 7 17 15 17 17 0 8 -8 3 -21 -13z"/>
<path d="M7554 3554 c1 -8 4 -15 7 -16 2 -2 3 -1 2 1 -2 2 2 9 7 16 7 8 5 12
-4 12 -8 0 -13 -6 -12 -13z"/>
<path d="M7585 3540 c-3 -6 1 -7 9 -4 18 7 21 14 7 14 -6 0 -13 -4 -16 -10z"/>
<path d="M2440 3506 c0 -2 7 -7 16 -10 8 -3 12 -2 9 4 -6 10 -25 14 -25 6z"/>
<path d="M7547 3503 c7 -2 9 -11 6 -19 -3 -8 1 -14 8 -14 7 0 9 3 6 7 -4 3 -3
11 3 17 6 8 2 12 -13 13 -12 0 -17 -1 -10 -4z"/>
<path d="M7676 3482 c-3 -5 1 -9 9 -9 8 0 12 4 9 9 -3 4 -7 8 -9 8 -2 0 -6 -4
-9 -8z"/>
<path d="M2393 3465 c0 -8 4 -12 9 -9 5 3 6 10 3 15 -9 13 -12 11 -12 -6z"/>
<path d="M2455 3470 c-3 -6 1 -7 9 -4 18 7 21 14 7 14 -6 0 -13 -4 -16 -10z"/>
<path d="M7443 3455 c-10 -10 -9 -16 4 -27 13 -10 15 -10 9 0 -4 7 -2 19 4 27
16 19 -1 19 -17 0z"/>
<path d="M7510 3466 c0 -2 7 -7 16 -10 8 -3 12 -2 9 4 -6 10 -25 14 -25 6z"/>
<path d="M2441 3443 c7 -12 15 -20 18 -17 3 2 -3 12 -13 22 -17 16 -18 16 -5
-5z"/>
<path d="M7470 3438 c0 -11 12 -10 30 2 12 7 10 9 -8 7 -12 0 -22 -5 -22 -9z"/>
<path d="M7511 3431 c-8 -5 -16 -17 -17 -25 -1 -9 2 -14 7 -10 5 3 6 10 3 16
-5 8 -1 9 10 5 11 -5 15 -3 10 5 -5 8 -2 9 10 5 10 -4 15 -3 11 3 -8 12 -16
12 -34 1z"/>
<path d="M7586 3418 c3 -5 10 -6 15 -3 13 9 11 12 -6 12 -8 0 -12 -4 -9 -9z"/>
<path d="M2421 3404 c0 -11 3 -14 6 -6 3 7 2 16 -1 19 -3 4 -6 -2 -5 -13z"/>
<path d="M2270 3400 c0 -5 5 -10 11 -10 5 0 7 5 4 10 -3 6 -8 10 -11 10 -2 0
-4 -4 -4 -10z"/>
<path d="M2447 3399 c7 -7 15 -10 18 -7 3 3 -2 9 -12 12 -14 6 -15 5 -6 -5z"/>
<path d="M7556 3394 c-3 -9 -11 -12 -18 -8 -7 4 -9 3 -5 -1 14 -16 33 -13 34
6 2 23 -3 24 -11 3z"/>
<path d="M7589 3383 c-13 -16 -12 -17 4 -4 16 13 21 21 13 21 -2 0 -10 -8 -17
-17z"/>
<path d="M2390 3386 c0 -2 7 -7 16 -10 8 -3 12 -2 9 4 -6 10 -25 14 -25 6z"/>
<path d="M2393 3363 c4 -3 1 -13 -6 -22 -11 -14 -10 -14 5 -2 16 12 16 31 1
31 -4 0 -3 -3 0 -7z"/>
<path d="M7694 3258 c-4 -7 -3 -10 1 -5 5 4 18 -1 29 -10 21 -18 21 -18 2 5
-22 26 -23 26 -32 10z"/>
<path d="M2216 3102 c-3 -5 1 -9 9 -9 8 0 12 4 9 9 -3 4 -7 8 -9 8 -2 0 -6 -4
-9 -8z"/>
<path d="M7730 3099 c0 -5 5 -7 10 -4 6 3 10 8 10 11 0 2 -4 4 -10 4 -5 0 -10
-5 -10 -11z"/>
<path d="M7755 2980 c-3 -5 -1 -10 4 -10 6 0 11 5 11 10 0 6 -2 10 -4 10 -3 0
-8 -4 -11 -10z"/>
<path d="M7755 2831 c-3 -5 -2 -12 3 -15 5 -3 9 1 9 9 0 17 -3 19 -12 6z"/>
<path d="M2190 2766 c0 -2 7 -7 16 -10 8 -3 12 -2 9 4 -6 10 -25 14 -25 6z"/>
<path d="M2235 2741 c-3 -5 -2 -12 3 -15 5 -3 9 1 9 9 0 17 -3 19 -12 6z"/>
<path d="M7730 2740 c0 -5 5 -10 11 -10 5 0 7 5 4 10 -3 6 -8 10 -11 10 -2 0
-4 -4 -4 -10z"/>
<path d="M2235 2691 c-3 -5 -2 -12 3 -15 5 -3 9 1 9 9 0 17 -3 19 -12 6z"/>
<path d="M2280 2686 c0 -2 8 -10 18 -17 15 -13 16 -12 3 4 -13 16 -21 21 -21
13z"/>
<path d="M2225 2640 c-3 -6 1 -7 9 -4 18 7 21 14 7 14 -6 0 -13 -4 -16 -10z"/>
<path d="M2295 2641 c-3 -5 -2 -12 3 -15 5 -3 9 1 9 9 0 17 -3 19 -12 6z"/>
<path d="M7635 2620 c-3 -5 -1 -10 4 -10 6 0 11 5 11 10 0 6 -2 10 -4 10 -3 0
-8 -4 -11 -10z"/>
<path d="M2326 2603 c-6 -14 -5 -15 5 -6 7 7 10 15 7 18 -3 3 -9 -2 -12 -12z"/>
<path d="M2235 2600 c3 -5 8 -10 11 -10 2 0 4 5 4 10 0 6 -5 10 -11 10 -5 0
-7 -4 -4 -10z"/>
<path d="M2270 2599 c0 -5 5 -7 10 -4 6 3 10 8 10 11 0 2 -4 4 -10 4 -5 0 -10
-5 -10 -11z"/>
<path d="M7628 2579 c6 -9 9 -18 6 -22 -3 -3 1 -4 10 -3 8 1 18 5 21 9 3 4 2
5 -2 2 -3 -3 -16 3 -27 12 -15 14 -18 14 -8 2z"/>
<path d="M2380 2560 c0 -5 5 -10 11 -10 5 0 7 5 4 10 -3 6 -8 10 -11 10 -2 0
-4 -4 -4 -10z"/>
<path d="M7575 2560 c-3 -5 -1 -10 4 -10 6 0 11 5 11 10 0 6 -2 10 -4 10 -3 0
-8 -4 -11 -10z"/>
<path d="M2348 2528 c-10 -10 -14 -18 -9 -18 10 0 36 29 30 34 -2 1 -12 -6
-21 -16z"/>
<path d="M7695 2541 c-3 -5 -2 -12 3 -15 5 -3 9 1 9 9 0 17 -3 19 -12 6z"/>
<path d="M2384 2525 c-10 -8 -14 -15 -9 -16 6 0 -1 -5 -15 -10 l-25 -8 25 2
c14 1 24 8 23 15 -2 6 4 12 12 12 8 0 15 5 15 10 0 13 -3 13 -26 -5z"/>
<path d="M7545 2515 c-10 -13 -24 -21 -29 -18 -5 4 -6 1 -2 -6 6 -9 13 -8 27
5 17 16 19 16 25 0 3 -9 16 -22 28 -28 17 -9 16 -6 -6 16 -15 15 -24 34 -21
42 7 20 1 17 -22 -11z"/>
<path d="M7587 2527 c-3 -8 0 -14 7 -14 7 0 13 6 13 14 0 7 -4 13 -8 13 -4 0
-9 -6 -12 -13z"/>
<path d="M7651 2527 c-8 -10 -7 -14 2 -14 8 0 14 6 14 14 0 7 -1 13 -2 13 -2
0 -8 -6 -14 -13z"/>
<path d="M2200 2520 c-9 -6 -10 -10 -3 -10 6 0 15 5 18 10 8 12 4 12 -15 0z"/>
<path d="M2396 2493 c-6 -14 -5 -15 5 -6 7 7 10 15 7 18 -3 3 -9 -2 -12 -12z"/>
<path d="M7628 2496 c12 -23 39 -30 39 -10 0 10 -4 11 -10 5 -7 -7 -15 -5 -24
7 -13 16 -14 15 -5 -2z"/>
<path d="M2166 2458 c3 -5 10 -6 15 -3 13 9 11 12 -6 12 -8 0 -12 -4 -9 -9z"/>
<path d="M2273 2450 c19 -25 20 -26 14 -8 -3 9 -1 19 6 21 7 3 2 4 -10 4 -18
-1 -20 -4 -10 -17z"/>
<path d="M7564 2462 c13 -21 41 -31 57 -20 12 8 11 9 -2 5 -9 -3 -27 2 -40 10
-12 9 -19 11 -15 5z"/>
<path d="M7730 2459 c0 -5 5 -7 10 -4 6 3 10 8 10 11 0 2 -4 4 -10 4 -5 0 -10
-5 -10 -11z"/>
<path d="M7652 2451 c-11 -6 -10 -10 0 -19 11 -8 14 -7 14 9 0 10 0 19 -1 19
0 0 -6 -4 -13 -9z"/>
<path d="M2140 2446 c0 -2 8 -10 18 -17 15 -13 16 -12 3 4 -13 16 -21 21 -21
13z"/>
<path d="M7620 2426 c0 -2 7 -7 16 -10 8 -3 12 -2 9 4 -6 10 -25 14 -25 6z"/>
<path d="M7770 2419 c0 -5 5 -7 10 -4 6 3 10 8 10 11 0 2 -4 4 -10 4 -5 0 -10
-5 -10 -11z"/>
<path d="M7693 2405 c0 -8 3 -13 5 -10 3 3 15 -3 26 -12 15 -14 18 -14 8 -2
-6 9 -8 20 -4 25 4 5 3 6 -2 2 -5 -4 -14 -3 -21 2 -8 7 -12 5 -12 -5z"/>
<path d="M2193 2375 c0 -8 4 -12 9 -9 5 3 6 10 3 15 -9 13 -12 11 -12 -6z"/>
<path d="M7746 2338 c3 -4 9 -8 15 -8 5 0 9 4 9 8 0 5 -7 9 -15 9 -8 0 -12 -4
-9 -9z"/>
<path d="M7790 2326 c0 -2 7 -7 16 -10 8 -3 12 -2 9 4 -6 10 -25 14 -25 6z"/>
<path d="M7825 2300 c-3 -6 1 -7 9 -4 18 7 21 14 7 14 -6 0 -13 -4 -16 -10z"/>
<path d="M1966 2262 c-3 -5 1 -9 9 -9 8 0 12 4 9 9 -3 4 -7 8 -9 8 -2 0 -6 -4
-9 -8z"/>
<path d="M7876 2247 c3 -10 9 -15 12 -12 3 3 0 11 -7 18 -10 9 -11 8 -5 -6z"/>
<path d="M7950 2201 c0 -6 4 -13 10 -16 6 -3 7 1 4 9 -7 18 -14 21 -14 7z"/>
<path d="M1915 2171 c-3 -5 -2 -12 3 -15 5 -3 9 1 9 9 0 17 -3 19 -12 6z"/>
<path d="M8056 2158 c3 -5 10 -6 15 -3 13 9 11 12 -6 12 -8 0 -12 -4 -9 -9z"/>
<path d="M1795 2099 c-3 -4 2 -6 10 -5 21 3 28 13 10 13 -9 0 -18 -4 -20 -8z"/>
<path d="M8090 2099 c0 -5 5 -7 10 -4 6 3 10 8 10 11 0 2 -4 4 -10 4 -5 0 -10
-5 -10 -11z"/>
<path d="M8133 2055 c0 -8 4 -12 9 -9 5 3 6 10 3 15 -9 13 -12 11 -12 -6z"/>
<path d="M8213 1985 c0 -8 4 -12 9 -9 5 3 6 10 3 15 -9 13 -12 11 -12 -6z"/>
<path d="M8210 1940 c0 -5 5 -10 11 -10 5 0 7 5 4 10 -3 6 -8 10 -11 10 -2 0
-4 -4 -4 -10z"/>
<path d="M1650 1899 c0 -5 5 -7 10 -4 6 3 10 8 10 11 0 2 -4 4 -10 4 -5 0 -10
-5 -10 -11z"/>
<path d="M8227 1879 c7 -7 15 -10 18 -7 3 3 -2 9 -12 12 -14 6 -15 5 -6 -5z"/>
<path d="M8295 1860 c-3 -5 -1 -10 4 -10 6 0 11 5 11 10 0 6 -2 10 -4 10 -3 0
-8 -4 -11 -10z"/>
<path d="M1574 1782 c4 -3 14 -7 22 -8 9 -1 13 0 10 4 -4 3 -14 7 -22 8 -9 1
-13 0 -10 -4z"/>
<path d="M8370 1745 c0 -5 5 -17 10 -25 5 -8 10 -10 10 -5 0 6 -5 17 -10 25
-5 8 -10 11 -10 5z"/>
<path d="M8429 1723 c-13 -16 -12 -17 4 -4 9 7 17 15 17 17 0 8 -8 3 -21 -13z"/>
<path d="M1450 1696 c0 -2 8 -10 18 -17 15 -13 16 -12 3 4 -13 16 -21 21 -21
13z"/>
<path d="M8400 1620 c-12 -7 -10 -9 7 -7 12 0 19 5 17 9 -6 10 -6 10 -24 -2z"/>
<path d="M1455 1540 c3 -5 8 -10 11 -10 2 0 4 5 4 10 0 6 -5 10 -11 10 -5 0
-7 -4 -4 -10z"/>
<path d="M8514 1476 c1 -8 5 -18 8 -22 4 -3 5 1 4 10 -1 8 -5 18 -8 22 -4 3
-5 -1 -4 -10z"/>
<path d="M1434 1449 c-3 -6 -2 -15 3 -20 5 -5 9 -1 9 11 0 23 -2 24 -12 9z"/>
<path d="M8626 1422 c-3 -5 1 -9 9 -9 8 0 12 4 9 9 -3 4 -7 8 -9 8 -2 0 -6 -4
-9 -8z"/>
<path d="M8509 1363 c-13 -16 -12 -17 4 -4 16 13 21 21 13 21 -2 0 -10 -8 -17
-17z"/>
<path d="M1436 1327 c3 -10 9 -15 12 -12 3 3 0 11 -7 18 -10 9 -11 8 -5 -6z"/>
<path d="M1380 1320 c-9 -6 -10 -10 -3 -10 6 0 15 5 18 10 8 12 4 12 -15 0z"/>
<path d="M1275 1251 c-3 -5 -2 -12 3 -15 5 -3 9 1 9 9 0 17 -3 19 -12 6z"/>
<path d="M1355 1249 c-4 -6 -5 -12 -2 -15 2 -3 7 2 10 11 7 17 1 20 -8 4z"/>
<path d="M8553 1193 c0 -9 4 -10 14 -2 7 6 13 12 13 14 0 1 -6 2 -13 2 -8 0
-14 -6 -14 -14z"/>
<path d="M8570 1100 c0 -5 5 -10 11 -10 5 0 7 5 4 10 -3 6 -8 10 -11 10 -2 0
-4 -4 -4 -10z"/>
<path d="M8629 1003 c-13 -16 -12 -17 4 -4 9 7 17 15 17 17 0 8 -8 3 -21 -13z"/>
<path d="M2391 867 c-8 -10 -7 -14 2 -14 8 0 14 6 14 14 0 7 -1 13 -2 13 -2 0
-8 -6 -14 -13z"/>
<path d="M2510 876 c0 -2 8 -10 18 -17 15 -13 16 -12 3 4 -13 16 -21 21 -21
13z"/>
<path d="M2711 867 c-8 -10 -7 -14 2 -14 8 0 14 6 14 14 0 7 -1 13 -2 13 -2 0
-8 -6 -14 -13z"/>
<path d="M2830 876 c0 -2 8 -10 18 -17 15 -13 16 -12 3 4 -13 16 -21 21 -21
13z"/>
<path d="M3759 875 c-1 -3 -2 -8 -3 -12 -1 -5 -5 -15 -10 -23 -7 -12 -6 -13 4
-3 13 12 23 43 14 43 -2 0 -5 -2 -5 -5z"/>
<path d="M4955 871 c-3 -5 -2 -12 3 -15 5 -3 9 1 9 9 0 17 -3 19 -12 6z"/>
<path d="M5034 865 c1 -8 8 -21 16 -28 12 -10 12 -9 2 4 -6 9 -9 18 -6 21 3 3
1 9 -4 12 -6 3 -9 -1 -8 -9z"/>
<path d="M5275 871 c-3 -5 -2 -12 3 -15 5 -3 9 1 9 9 0 17 -3 19 -12 6z"/>
<path d="M5354 865 c1 -8 8 -21 16 -28 12 -10 12 -9 2 4 -6 9 -9 18 -6 21 3 3
1 9 -4 12 -6 3 -9 -1 -8 -9z"/>
<path d="M7511 867 c-8 -10 -7 -14 2 -14 8 0 14 6 14 14 0 7 -1 13 -2 13 -2 0
-8 -6 -14 -13z"/>
<path d="M7630 876 c0 -2 8 -10 18 -17 15 -13 16 -12 3 4 -13 16 -21 21 -21
13z"/>
<path d="M7831 867 c-8 -10 -7 -14 2 -14 8 0 14 6 14 14 0 7 -1 13 -2 13 -2 0
-8 -6 -14 -13z"/>
<path d="M7950 876 c0 -2 8 -10 18 -17 15 -13 16 -12 3 4 -13 16 -21 21 -21
13z"/>
<path d="M1666 858 c3 -5 10 -6 15 -3 13 9 11 12 -6 12 -8 0 -12 -4 -9 -9z"/>
<path d="M2227 859 c7 -9 10 -19 6 -22 -3 -4 -1 -7 5 -7 17 0 15 16 -5 31 -16
12 -17 12 -6 -2z"/>
<path d="M2876 858 c3 -5 10 -6 15 -3 13 9 11 12 -6 12 -8 0 -12 -4 -9 -9z"/>
<path d="M4145 860 c-3 -6 1 -7 9 -4 18 7 21 14 7 14 -6 0 -13 -4 -16 -10z"/>
<path d="M4310 856 c7 -7 13 -7 20 0 6 6 3 10 -10 10 -13 0 -16 -4 -10 -10z"/>
<path d="M5590 856 c7 -7 13 -7 20 0 6 6 3 10 -10 10 -13 0 -16 -4 -10 -10z"/>
<path d="M6705 859 c-3 -4 2 -6 10 -5 21 3 28 13 10 13 -9 0 -18 -4 -20 -8z"/>
<path d="M7347 859 c7 -9 10 -19 6 -22 -3 -4 -1 -7 5 -7 17 0 15 16 -5 31 -16
12 -17 12 -6 -2z"/>
<path d="M2973 845 c0 -8 4 -12 9 -9 5 3 6 10 3 15 -9 13 -12 11 -12 -6z"/>
<path d="M3096 847 c3 -10 9 -15 12 -12 3 3 0 11 -7 18 -10 9 -11 8 -5 -6z"/>
<path d="M6813 845 c0 -8 4 -12 9 -9 5 3 6 10 3 15 -9 13 -12 11 -12 -6z"/>
<path d="M6936 847 c3 -10 9 -15 12 -12 3 3 0 11 -7 18 -10 9 -11 8 -5 -6z"/>
<path d="M1795 840 c3 -5 8 -10 11 -10 2 0 4 5 4 10 0 6 -5 10 -11 10 -5 0 -7
-4 -4 -10z"/>
<path d="M1854 842 c4 -3 14 -7 22 -8 9 -1 13 0 10 4 -4 3 -14 7 -22 8 -9 1
-13 0 -10 -4z"/>
<path d="M2266 838 c3 -5 10 -6 15 -3 13 9 11 12 -6 12 -8 0 -12 -4 -9 -9z"/>
<path d="M2586 838 c3 -5 10 -6 15 -3 13 9 11 12 -6 12 -8 0 -12 -4 -9 -9z"/>
<path d="M3587 839 c7 -7 15 -10 18 -7 3 3 -2 9 -12 12 -14 6 -15 5 -6 -5z"/>
<path d="M3710 839 c0 -5 5 -7 10 -4 6 3 10 8 10 11 0 2 -4 4 -10 4 -5 0 -10
-5 -10 -11z"/>
<path d="M4273 835 c0 -8 4 -12 9 -9 5 3 6 10 3 15 -9 13 -12 11 -12 -6z"/>
<path d="M4650 839 c0 -5 5 -7 10 -4 6 3 10 8 10 11 0 2 -4 4 -10 4 -5 0 -10
-5 -10 -11z"/>
<path d="M4814 842 c4 -3 14 -7 22 -8 9 -1 13 0 10 4 -4 3 -14 7 -22 8 -9 1
-13 0 -10 -4z"/>
<path d="M5075 840 c3 -5 8 -10 11 -10 2 0 4 5 4 10 0 6 -5 10 -11 10 -5 0 -7
-4 -4 -10z"/>
<path d="M5110 841 c0 -6 4 -13 10 -16 6 -3 7 1 4 9 -7 18 -14 21 -14 7z"/>
<path d="M5134 842 c4 -3 14 -7 22 -8 9 -1 13 0 10 4 -4 3 -14 7 -22 8 -9 1
-13 0 -10 -4z"/>
<path d="M5395 840 c3 -5 8 -10 11 -10 2 0 4 5 4 10 0 6 -5 10 -11 10 -5 0 -7
-4 -4 -10z"/>
<path d="M5430 839 c0 -5 5 -7 10 -4 6 3 10 8 10 11 0 2 -4 4 -10 4 -5 0 -10
-5 -10 -11z"/>
<path d="M5553 835 c0 -8 4 -12 9 -9 5 3 6 10 3 15 -9 13 -12 11 -12 -6z"/>
<path d="M5930 839 c0 -5 5 -7 10 -4 6 3 10 8 10 11 0 2 -4 4 -10 4 -5 0 -10
-5 -10 -11z"/>
<path d="M6094 842 c4 -3 14 -7 22 -8 9 -1 13 0 10 4 -4 3 -14 7 -22 8 -9 1
-13 0 -10 -4z"/>
<path d="M6376 838 c3 -5 10 -6 15 -3 13 9 11 12 -6 12 -8 0 -12 -4 -9 -9z"/>
<path d="M6414 842 c4 -3 14 -7 22 -8 9 -1 13 0 10 4 -4 3 -14 7 -22 8 -9 1
-13 0 -10 -4z"/>
<path d="M6460 846 c0 -2 8 -10 18 -17 15 -13 16 -12 3 4 -13 16 -21 21 -21
13z"/>
<path d="M6590 839 c0 -5 5 -7 10 -4 6 3 10 8 10 11 0 2 -4 4 -10 4 -5 0 -10
-5 -10 -11z"/>
<path d="M7386 838 c3 -5 10 -6 15 -3 13 9 11 12 -6 12 -8 0 -12 -4 -9 -9z"/>
<path d="M7706 838 c3 -5 10 -6 15 -3 13 9 11 12 -6 12 -8 0 -12 -4 -9 -9z"/>
<path d="M8090 839 c0 -5 5 -7 10 -4 6 3 10 8 10 11 0 2 -4 4 -10 4 -5 0 -10
-5 -10 -11z"/>
<path d="M8195 840 c3 -5 8 -10 11 -10 2 0 4 5 4 10 0 6 -5 10 -11 10 -5 0 -7
-4 -4 -10z"/>
<path d="M1675 830 c-4 -6 -11 -7 -17 -4 -7 4 -8 2 -4 -5 6 -9 11 -9 22 0 14
11 18 19 10 19 -3 0 -8 -5 -11 -10z"/>
<path d="M3055 831 c-3 -5 -2 -12 3 -15 5 -3 9 1 9 9 0 17 -3 19 -12 6z"/>
<path d="M6895 831 c-3 -5 -2 -12 3 -15 5 -3 9 1 9 9 0 17 -3 19 -12 6z"/>
<path d="M1975 820 c-3 -5 -1 -10 4 -10 6 0 11 5 11 10 0 6 -2 10 -4 10 -3 0
-8 -4 -11 -10z"/>
<path d="M2015 820 c3 -5 8 -10 11 -10 2 0 4 5 4 10 0 6 -5 10 -11 10 -5 0 -7
-4 -4 -10z"/>
<path d="M2170 819 c0 -5 5 -7 10 -4 6 3 10 8 10 11 0 2 -4 4 -10 4 -5 0 -10
-5 -10 -11z"/>
<path d="M2375 820 c-3 -5 -1 -10 4 -10 6 0 11 5 11 10 0 6 -2 10 -4 10 -3 0
-8 -4 -11 -10z"/>
<path d="M2495 820 c3 -5 8 -10 11 -10 2 0 4 5 4 10 0 6 -5 10 -11 10 -5 0 -7
-4 -4 -10z"/>
<path d="M2535 820 c-3 -5 -1 -10 4 -10 6 0 11 5 11 10 0 6 -2 10 -4 10 -3 0
-8 -4 -11 -10z"/>
<path d="M2695 820 c-3 -5 -1 -10 4 -10 6 0 11 5 11 10 0 6 -2 10 -4 10 -3 0
-8 -4 -11 -10z"/>
<path d="M2815 820 c3 -5 8 -10 11 -10 2 0 4 5 4 10 0 6 -5 10 -11 10 -5 0 -7
-4 -4 -10z"/>
<path d="M2855 820 c-3 -5 -1 -10 4 -10 6 0 11 5 11 10 0 6 -2 10 -4 10 -3 0
-8 -4 -11 -10z"/>
<path d="M2886 818 c3 -5 10 -6 15 -3 13 9 11 12 -6 12 -8 0 -12 -4 -9 -9z"/>
<path d="M3255 820 c-3 -5 -1 -10 4 -10 6 0 11 5 11 10 0 6 -2 10 -4 10 -3 0
-8 -4 -11 -10z"/>
<path d="M3295 820 c3 -5 8 -10 11 -10 2 0 4 5 4 10 0 6 -5 10 -11 10 -5 0 -7
-4 -4 -10z"/>
<path d="M3450 819 c0 -5 5 -7 10 -4 6 3 10 8 10 11 0 2 -4 4 -10 4 -5 0 -10
-5 -10 -11z"/>
<path d="M3775 820 c3 -5 8 -10 11 -10 2 0 4 5 4 10 0 6 -5 10 -11 10 -5 0 -7
-4 -4 -10z"/>
<path d="M4215 820 c3 -5 8 -10 11 -10 2 0 4 5 4 10 0 6 -5 10 -11 10 -5 0 -7
-4 -4 -10z"/>
<path d="M4775 820 c3 -5 8 -10 11 -10 2 0 4 5 4 10 0 6 -5 10 -11 10 -5 0 -7
-4 -4 -10z"/>
<path d="M5495 820 c3 -5 8 -10 11 -10 2 0 4 5 4 10 0 6 -5 10 -11 10 -5 0 -7
-4 -4 -10z"/>
<path d="M6055 820 c3 -5 8 -10 11 -10 2 0 4 5 4 10 0 6 -5 10 -11 10 -5 0 -7
-4 -4 -10z"/>
<path d="M6715 819 c-3 -4 2 -6 10 -5 21 3 28 13 10 13 -9 0 -18 -4 -20 -8z"/>
<path d="M7095 820 c-3 -5 -1 -10 4 -10 6 0 11 5 11 10 0 6 -2 10 -4 10 -3 0
-8 -4 -11 -10z"/>
<path d="M7135 820 c3 -5 8 -10 11 -10 2 0 4 5 4 10 0 6 -5 10 -11 10 -5 0 -7
-4 -4 -10z"/>
<path d="M7290 819 c0 -5 5 -7 10 -4 6 3 10 8 10 11 0 2 -4 4 -10 4 -5 0 -10
-5 -10 -11z"/>
<path d="M7495 820 c-3 -5 -1 -10 4 -10 6 0 11 5 11 10 0 6 -2 10 -4 10 -3 0
-8 -4 -11 -10z"/>
<path d="M7615 820 c3 -5 8 -10 11 -10 2 0 4 5 4 10 0 6 -5 10 -11 10 -5 0 -7
-4 -4 -10z"/>
<path d="M7655 820 c-3 -5 -1 -10 4 -10 6 0 11 5 11 10 0 6 -2 10 -4 10 -3 0
-8 -4 -11 -10z"/>
<path d="M7815 820 c-3 -5 -1 -10 4 -10 6 0 11 5 11 10 0 6 -2 10 -4 10 -3 0
-8 -4 -11 -10z"/>
<path d="M7935 820 c3 -5 8 -10 11 -10 2 0 4 5 4 10 0 6 -5 10 -11 10 -5 0 -7
-4 -4 -10z"/>
<path d="M7975 820 c-3 -5 -1 -10 4 -10 6 0 11 5 11 10 0 6 -2 10 -4 10 -3 0
-8 -4 -11 -10z"/>
<path d="M8010 819 c0 -5 5 -7 10 -4 6 3 10 8 10 11 0 2 -4 4 -10 4 -5 0 -10
-5 -10 -11z"/>
<path d="M4349 803 c-13 -16 -12 -17 4 -4 16 13 21 21 13 21 -2 0 -10 -8 -17
-17z"/>
<path d="M5629 803 c-13 -16 -12 -17 4 -4 16 13 21 21 13 21 -2 0 -10 -8 -17
-17z"/>
<path d="M1553 795 c0 -8 4 -12 9 -9 5 3 6 10 3 15 -9 13 -12 11 -12 -6z"/>
<path d="M8185 800 c-3 -6 1 -7 9 -4 18 7 21 14 7 14 -6 0 -13 -4 -16 -10z"/>
<path d="M1870 760 c0 -5 5 -10 11 -10 5 0 7 5 4 10 -3 6 -8 10 -11 10 -2 0
-4 -4 -4 -10z"/>
<path d="M2106 762 c-3 -5 1 -9 9 -9 8 0 12 4 9 9 -3 4 -7 8 -9 8 -2 0 -6 -4
-9 -8z"/>
<path d="M3386 762 c-3 -5 1 -9 9 -9 8 0 12 4 9 9 -3 4 -7 8 -9 8 -2 0 -6 -4
-9 -8z"/>
<path d="M4396 758 c3 -5 10 -6 15 -3 13 9 11 12 -6 12 -8 0 -12 -4 -9 -9z"/>
<path d="M4636 762 c-3 -5 1 -9 9 -9 8 0 12 4 9 9 -3 4 -7 8 -9 8 -2 0 -6 -4
-9 -8z"/>
<path d="M5676 758 c3 -5 10 -6 15 -3 13 9 11 12 -6 12 -8 0 -12 -4 -9 -9z"/>
<path d="M5916 762 c-3 -5 1 -9 9 -9 8 0 12 4 9 9 -3 4 -7 8 -9 8 -2 0 -6 -4
-9 -8z"/>
<path d="M6280 766 c0 -2 8 -10 18 -17 15 -13 16 -12 3 4 -13 16 -21 21 -21
13z"/>
<path d="M7226 762 c-3 -5 1 -9 9 -9 8 0 12 4 9 9 -3 4 -7 8 -9 8 -2 0 -6 -4
-9 -8z"/>
</g>
</svg>
